<svg width="40" height="41" viewBox="0 0 40 41" fill="none" xmlns="http://www.w3.org/2000/svg">
<path d="M30.0279 18.1927C28.8996 19.3279 28.3357 20.9068 28.4897 22.5L28.4632 22.4735C28.6215 24.3484 27.9452 26.1976 26.6148 27.528C25.2844 28.8585 23.4351 29.5347 21.5603 29.3765L21.5868 29.4029C19.3168 29.1917 17.158 30.4264 16.1893 32.4902C15.2205 34.5539 15.6498 37.0035 17.2626 38.6148C18.8754 40.2262 21.3254 40.6532 23.3883 39.6826C25.4511 38.712 26.6839 36.5522 26.4706 34.2824L26.4985 34.3088C26.3403 32.434 27.0165 30.5847 28.347 29.2543C29.6774 27.9239 31.5266 27.2476 33.4015 27.4059L33.3735 27.3794C35.8683 27.6038 38.1897 26.0826 38.9799 23.7056C39.7701 21.3287 38.8215 18.7204 36.689 17.4064C34.5564 16.0925 31.8001 16.418 30.0323 18.1927H30.0279Z" fill="#5454D4"/>
<path d="M19.1794 25.9353L19.1515 25.9088C20.7456 26.0695 22.3277 25.5057 23.4611 24.3732C24.5945 23.2407 25.1594 21.659 25 20.0647L25.0279 20.0912C24.8697 18.2163 25.5459 16.3671 26.8764 15.0367C28.2068 13.7062 30.056 13.03 31.9309 13.1882L31.9029 13.1618C34.1731 13.375 36.3332 12.1416 37.3034 10.0781C38.2736 8.01464 37.8456 5.56435 36.2333 3.95202C34.6209 2.3397 32.1706 1.91166 30.1072 2.88188C28.0437 3.8521 26.8103 6.01217 27.0235 8.28236L26.997 8.25442C27.1558 10.1294 26.4797 11.979 25.1492 13.3095C23.8186 14.64 21.9691 15.3161 20.0941 15.1574L20.1206 15.1853C18.5264 15.0247 16.9443 15.5884 15.8109 16.7209C14.6775 17.8535 14.1126 19.4351 14.272 21.0294L14.2456 21.0029C14.4033 22.8776 13.7269 24.7266 12.3966 26.0569C11.0663 27.3872 9.21733 28.0636 7.34263 27.9059L7.3691 27.9324C5.09892 27.7192 2.93885 28.9526 1.96863 31.016C0.998411 33.0795 1.42644 35.5298 3.03877 37.1421C4.6511 38.7544 7.10139 39.1825 9.16485 38.2122C11.2283 37.242 12.4617 35.082 12.2485 32.8118L12.2765 32.8382C12.1182 30.9634 12.7945 29.1142 14.1249 27.7837C15.4553 26.4533 17.3046 25.777 19.1794 25.9353Z" fill="#FF7143"/>
<path d="M9.32353 22.9838C10.452 21.8488 11.0155 20.2695 10.8603 18.6765L10.8882 18.7029C10.7298 16.8276 11.4065 14.9778 12.7376 13.6472C14.0687 12.3167 15.9188 11.6408 17.7941 11.8L17.7662 11.7735C20.0356 11.9861 22.1946 10.7529 23.1642 8.69004C24.1339 6.62724 23.7058 4.17791 22.0941 2.56618C20.4824 0.954447 18.0331 0.526442 15.9703 1.49607C13.9074 2.4657 12.6742 4.62473 12.8868 6.89412L12.8603 6.86765C13.0186 8.74248 12.3423 10.5917 11.0119 11.9222C9.68144 13.2526 7.83218 13.9289 5.95735 13.7706L5.98382 13.7971C3.48912 13.5733 1.16818 15.0949 0.378454 17.4719C-0.411274 19.8488 0.537647 22.4568 2.67022 23.7705C4.8028 25.0841 7.55886 24.7584 9.32647 22.9838H9.32353Z" fill="#5454D4"/>
</svg>
